<svg width="284" height="40" viewBox="0 0 284 40" fill="none" xmlns="http://www.w3.org/2000/svg">
<path d="M10.68 28.24C10.68 30.4533 10.28 32.28 9.48 33.72C8.70667 35.16 7.66667 36.28 6.36 37.08C5.08 37.9067 3.54667 38.6133 1.76 39.2L2.40654e-06 34.56C1.17334 34.1067 2.05334 33.5867 2.64 33C3.22667 32.4133 3.61334 31.7333 3.8 30.96C4.01334 30.1867 4.12 29.2 4.12 28V4.72H10.68V28.24ZM24.8153 10.52C28.0686 10.52 30.6153 11.52 32.4553 13.52C34.2953 15.4933 35.2153 18.2667 35.2153 21.84C35.2153 24.1067 34.7887 26.0933 33.9353 27.8C33.1086 29.48 31.9086 30.7867 30.3353 31.72C28.7886 32.6533 26.9486 33.12 24.8153 33.12C21.5886 33.12 19.042 32.1333 17.1753 30.16C15.3353 28.16 14.4153 25.3733 14.4153 21.8C14.4153 19.5333 14.8286 17.56 15.6553 15.88C16.5086 14.1733 17.7086 12.8533 19.2553 11.92C20.8286 10.9867 22.682 10.52 24.8153 10.52ZM24.8153 15.16C23.5353 15.16 22.5753 15.7067 21.9353 16.8C21.2953 17.8667 20.9753 19.5333 20.9753 21.8C20.9753 24.12 21.282 25.8133 21.8953 26.88C22.5353 27.9467 23.5086 28.48 24.8153 28.48C26.0953 28.48 27.0553 27.9467 27.6953 26.88C28.3353 25.7867 28.6553 24.1067 28.6553 21.84C28.6553 19.52 28.3353 17.8267 27.6953 16.76C27.082 15.6933 26.122 15.16 24.8153 15.16ZM55.4641 26.28C55.4641 27.08 55.5707 27.6667 55.7841 28.04C56.0241 28.4133 56.3974 28.6933 56.9041 28.88L55.5841 33C54.2774 32.8933 53.2107 32.6133 52.3841 32.16C51.5574 31.68 50.9174 30.9333 50.4641 29.92C49.0774 32.0533 46.9441 33.12 44.0641 33.12C41.9574 33.12 40.2774 32.5067 39.0241 31.28C37.7707 30.0533 37.1441 28.4533 37.1441 26.48C37.1441 24.16 37.9974 22.3867 39.7041 21.16C41.4107 19.9333 43.8774 19.32 47.1041 19.32H49.2641V18.4C49.2641 17.1467 48.9974 16.2933 48.4641 15.84C47.9307 15.36 46.9974 15.12 45.6641 15.12C44.9707 15.12 44.1307 15.2267 43.1441 15.44C42.1574 15.6267 41.1441 15.8933 40.1041 16.24L38.6641 12.08C39.9974 11.5733 41.3574 11.1867 42.7441 10.92C44.1574 10.6533 45.4641 10.52 46.6641 10.52C49.7041 10.52 51.9307 11.1467 53.3441 12.4C54.7574 13.6533 55.4641 15.5333 55.4641 18.04V26.28ZM45.9041 28.6C47.3441 28.6 48.4641 27.92 49.2641 26.56V22.8H47.7041C46.2641 22.8 45.1841 23.0533 44.4641 23.56C43.7707 24.0667 43.4241 24.8533 43.4241 25.92C43.4241 26.7733 43.6374 27.44 44.0641 27.92C44.5174 28.3733 45.1307 28.6 45.9041 28.6ZM49.2641 7.04C48.6774 7.04 48.1707 6.94667 47.7441 6.76C47.3174 6.57333 46.8507 6.30667 46.3441 5.96C45.6774 5.48 45.1307 5.24 44.7041 5.24C44.2507 5.24 43.8641 5.38667 43.5441 5.68C43.2507 5.94667 42.9307 6.38667 42.5841 7L39.4241 5.48C39.9574 4.09334 40.6641 2.96 41.5441 2.08C42.4507 1.2 43.4641 0.76 44.5841 0.76C45.1974 0.76 45.7174 0.866667 46.1441 1.08C46.5974 1.26667 47.0907 1.53333 47.6241 1.88C47.9974 2.12 48.2907 2.29333 48.5041 2.4C48.7441 2.50667 48.9841 2.56 49.2241 2.56C49.6507 2.56 50.0107 2.42667 50.3041 2.16C50.6241 1.86667 50.9574 1.41334 51.3041 0.800002L54.4641 2.36C53.9041 3.77333 53.1707 4.90667 52.2641 5.76C51.3841 6.61333 50.3841 7.04 49.2641 7.04ZM69.6981 10.52C72.9515 10.52 75.4981 11.52 77.3381 13.52C79.1781 15.4933 80.0981 18.2667 80.0981 21.84C80.0981 24.1067 79.6715 26.0933 78.8181 27.8C77.9915 29.48 76.7915 30.7867 75.2181 31.72C73.6715 32.6533 71.8315 33.12 69.6981 33.12C66.4715 33.12 63.9248 32.1333 62.0581 30.16C60.2181 28.16 59.2981 25.3733 59.2981 21.8C59.2981 19.5333 59.7115 17.56 60.5381 15.88C61.3915 14.1733 62.5915 12.8533 64.1381 11.92C65.7115 10.9867 67.5648 10.52 69.6981 10.52ZM69.6981 15.16C68.4181 15.16 67.4581 15.7067 66.8181 16.8C66.1781 17.8667 65.8581 19.5333 65.8581 21.8C65.8581 24.12 66.1648 25.8133 66.7781 26.88C67.4181 27.9467 68.3915 28.48 69.6981 28.48C70.9781 28.48 71.9381 27.9467 72.5781 26.88C73.2181 25.7867 73.5381 24.1067 73.5381 21.84C73.5381 19.52 73.2181 17.8267 72.5781 16.76C71.9648 15.6933 71.0048 15.16 69.6981 15.16ZM105.47 4.04C109.043 4.04 112.123 5.17333 114.71 7.44L111.39 10.92C110.403 10.1733 109.483 9.64 108.63 9.32C107.803 8.97334 106.843 8.8 105.75 8.8C103.696 8.8 102.056 9.61333 100.83 11.24C99.603 12.84 98.9897 15.28 98.9897 18.56C98.9897 22.1067 99.4564 24.6267 100.39 26.12C101.323 27.5867 102.776 28.32 104.75 28.32C106.136 28.32 107.39 28.0133 108.51 27.4V21.12H104.91L104.27 16.48H114.87V30.2C113.43 31.1333 111.843 31.8533 110.11 32.36C108.376 32.8667 106.643 33.12 104.91 33.12C100.696 33.12 97.523 31.8933 95.3897 29.44C93.2564 26.96 92.1897 23.3333 92.1897 18.56C92.1897 15.52 92.763 12.9067 93.9097 10.72C95.083 8.53334 96.6697 6.88 98.6697 5.76C100.696 4.61333 102.963 4.04 105.47 4.04ZM137.051 32.44H131.571L131.291 29.76C129.744 32 127.598 33.12 124.851 33.12C122.904 33.12 121.424 32.5333 120.411 31.36C119.424 30.1867 118.931 28.5467 118.931 26.44V11.2H125.251V25.64C125.251 26.68 125.411 27.4133 125.731 27.84C126.078 28.24 126.598 28.44 127.291 28.44C128.624 28.44 129.771 27.6133 130.731 25.96V11.2H137.051V32.44ZM148.342 11.2V32.44H142.022V11.2H148.342ZM145.142 4.76837e-07C146.235 4.76837e-07 147.128 0.346667 147.822 1.04C148.542 1.70667 148.902 2.56 148.902 3.6C148.902 4.64 148.542 5.50667 147.822 6.2C147.128 6.86667 146.235 7.2 145.142 7.2C144.048 7.2 143.155 6.86667 142.462 6.2C141.768 5.50667 141.422 4.64 141.422 3.6C141.422 2.56 141.768 1.70667 142.462 1.04C143.155 0.346667 144.048 4.76837e-07 145.142 4.76837e-07ZM176.791 10.52C178.471 10.52 179.817 11.0933 180.831 12.24C181.844 13.36 182.351 14.92 182.351 16.92V32.44H176.031V18C176.031 16.1067 175.431 15.16 174.231 15.16C173.564 15.16 172.977 15.3867 172.471 15.84C171.964 16.2933 171.471 16.9867 170.991 17.92V32.44H164.671V18C164.671 16.1067 164.071 15.16 162.871 15.16C162.231 15.16 161.644 15.4 161.111 15.88C160.604 16.3333 160.111 17.0133 159.631 17.92V32.44H153.311V11.2H158.831L159.271 13.68C160.097 12.6133 161.004 11.8267 161.991 11.32C163.004 10.7867 164.151 10.52 165.431 10.52C166.631 10.52 167.657 10.8133 168.511 11.4C169.391 11.9867 170.031 12.8133 170.431 13.88C171.284 12.7333 172.217 11.8933 173.231 11.36C174.271 10.8 175.457 10.52 176.791 10.52ZM203.98 26.28C203.98 27.08 204.086 27.6667 204.3 28.04C204.54 28.4133 204.913 28.6933 205.42 28.88L204.1 33C202.793 32.8933 201.726 32.6133 200.9 32.16C200.073 31.68 199.433 30.9333 198.98 29.92C197.593 32.0533 195.46 33.12 192.58 33.12C190.473 33.12 188.793 32.5067 187.54 31.28C186.286 30.0533 185.66 28.4533 185.66 26.48C185.66 24.16 186.513 22.3867 188.22 21.16C189.926 19.9333 192.393 19.32 195.62 19.32H197.78V18.4C197.78 17.1467 197.513 16.2933 196.98 15.84C196.446 15.36 195.513 15.12 194.18 15.12C193.486 15.12 192.646 15.2267 191.66 15.44C190.673 15.6267 189.66 15.8933 188.62 16.24L187.18 12.08C188.513 11.5733 189.873 11.1867 191.26 10.92C192.673 10.6533 193.98 10.52 195.18 10.52C198.22 10.52 200.446 11.1467 201.86 12.4C203.273 13.6533 203.98 15.5333 203.98 18.04V26.28ZM194.42 28.6C195.86 28.6 196.98 27.92 197.78 26.56V22.8H196.22C194.78 22.8 193.7 23.0533 192.98 23.56C192.286 24.0667 191.94 24.8533 191.94 25.92C191.94 26.7733 192.153 27.44 192.58 27.92C193.033 28.3733 193.646 28.6 194.42 28.6ZM220.534 10.6C221.307 10.6 222.014 10.6933 222.654 10.88L221.654 17C220.854 16.8133 220.214 16.72 219.734 16.72C218.48 16.72 217.52 17.16 216.854 18.04C216.214 18.8933 215.707 20.1867 215.334 21.92V32.44H209.014V11.2H214.534L215.054 15.32C215.534 13.8533 216.254 12.7067 217.214 11.88C218.2 11.0267 219.307 10.6 220.534 10.6ZM240.542 26.28C240.542 27.08 240.649 27.6667 240.862 28.04C241.102 28.4133 241.476 28.6933 241.982 28.88L240.662 33C239.356 32.8933 238.289 32.6133 237.462 32.16C236.636 31.68 235.996 30.9333 235.542 29.92C234.156 32.0533 232.022 33.12 229.142 33.12C227.036 33.12 225.356 32.5067 224.102 31.28C222.849 30.0533 222.222 28.4533 222.222 26.48C222.222 24.16 223.076 22.3867 224.782 21.16C226.489 19.9333 228.956 19.32 232.182 19.32H234.342V18.4C234.342 17.1467 234.076 16.2933 233.542 15.84C233.009 15.36 232.076 15.12 230.742 15.12C230.049 15.12 229.209 15.2267 228.222 15.44C227.236 15.6267 226.222 15.8933 225.182 16.24L223.742 12.08C225.076 11.5733 226.436 11.1867 227.822 10.92C229.236 10.6533 230.542 10.52 231.742 10.52C234.782 10.52 237.009 11.1467 238.422 12.4C239.836 13.6533 240.542 15.5333 240.542 18.04V26.28ZM230.982 28.6C232.422 28.6 233.542 27.92 234.342 26.56V22.8H232.782C231.342 22.8 230.262 23.0533 229.542 23.56C228.849 24.0667 228.502 24.8533 228.502 25.92C228.502 26.7733 228.716 27.44 229.142 27.92C229.596 28.3733 230.209 28.6 230.982 28.6ZM234.342 7.04C233.756 7.04 233.249 6.94667 232.822 6.76C232.396 6.57333 231.929 6.30667 231.422 5.96C230.756 5.48 230.209 5.24 229.782 5.24C229.329 5.24 228.942 5.38667 228.622 5.68C228.329 5.94667 228.009 6.38667 227.662 7L224.502 5.48C225.036 4.09334 225.742 2.96 226.622 2.08C227.529 1.2 228.542 0.76 229.662 0.76C230.276 0.76 230.796 0.866667 231.222 1.08C231.676 1.26667 232.169 1.53333 232.702 1.88C233.076 2.12 233.369 2.29333 233.582 2.4C233.822 2.50667 234.062 2.56 234.302 2.56C234.729 2.56 235.089 2.42667 235.382 2.16C235.702 1.86667 236.036 1.41334 236.382 0.800002L239.542 2.36C238.982 3.77333 238.249 4.90667 237.342 5.76C236.462 6.61333 235.462 7.04 234.342 7.04ZM264.096 21.4C264.096 22.28 264.056 23.04 263.976 23.68H250.816C251.03 25.4667 251.536 26.72 252.336 27.44C253.136 28.16 254.243 28.52 255.656 28.52C256.51 28.52 257.336 28.3733 258.136 28.08C258.936 27.76 259.803 27.28 260.736 26.64L263.336 30.16C260.856 32.1333 258.096 33.12 255.056 33.12C251.616 33.12 248.976 32.1067 247.136 30.08C245.296 28.0533 244.376 25.3333 244.376 21.92C244.376 19.76 244.763 17.8267 245.536 16.12C246.31 14.3867 247.443 13.0267 248.936 12.04C250.43 11.0267 252.216 10.52 254.296 10.52C257.363 10.52 259.763 11.48 261.496 13.4C263.23 15.32 264.096 17.9867 264.096 21.4ZM257.896 19.6C257.843 16.3467 256.696 14.72 254.456 14.72C253.363 14.72 252.51 15.12 251.896 15.92C251.31 16.72 250.95 18.04 250.816 19.88H257.896V19.6ZM275.127 10.52C276.647 10.52 278.073 10.7467 279.407 11.2C280.74 11.6533 281.913 12.2933 282.927 13.12L280.607 16.68C278.873 15.5867 277.127 15.04 275.367 15.04C274.54 15.04 273.9 15.1867 273.447 15.48C273.02 15.7467 272.807 16.1333 272.807 16.64C272.807 17.04 272.9 17.3733 273.087 17.64C273.3 17.88 273.713 18.1333 274.327 18.4C274.94 18.6667 275.887 18.9867 277.167 19.36C279.38 20 281.02 20.84 282.087 21.88C283.18 22.8933 283.727 24.3067 283.727 26.12C283.727 27.56 283.313 28.8133 282.487 29.88C281.66 30.92 280.527 31.72 279.087 32.28C277.647 32.84 276.047 33.12 274.287 33.12C272.5 33.12 270.833 32.84 269.287 32.28C267.767 31.72 266.473 30.9467 265.407 29.96L268.487 26.52C270.273 27.9067 272.153 28.6 274.127 28.6C275.087 28.6 275.833 28.4267 276.367 28.08C276.927 27.7333 277.207 27.24 277.207 26.6C277.207 26.0933 277.1 25.6933 276.887 25.4C276.673 25.1067 276.26 24.84 275.647 24.6C275.033 24.3333 274.06 24.0133 272.727 23.64C270.62 23.0267 269.047 22.1733 268.007 21.08C266.967 19.9867 266.447 18.6267 266.447 17C266.447 15.7733 266.793 14.68 267.487 13.72C268.207 12.7333 269.22 11.96 270.527 11.4C271.86 10.8133 273.393 10.52 275.127 10.52Z" fill="#141414"/>
</svg>
